<?xml version="1.0" standalone="no"?>
<!DOCTYPE svg PUBLIC "-//W3C//DTD SVG 20010904//EN"
 "http://www.w3.org/TR/2001/REC-SVG-20010904/DTD/svg10.dtd">
<svg version="1.0" xmlns="http://www.w3.org/2000/svg"
 width="207.000000pt" height="207.000000pt" viewBox="0 0 207.000000 207.000000"
 preserveAspectRatio="xMidYMid meet">
<metadata>
Created by potrace 1.11, written by Peter Selinger 2001-2013
</metadata>
<g transform="translate(0.000000,207.000000) scale(0.100000,-0.100000)"
fill="#000000" stroke="none">
<path d="M1110 1660 l0 -200 -125 0 -125 0 0 -405 0 -405 125 0 125 0 0 -207
0 -208 410 410 410 410 -402 402 c-222 222 -406 403 -410 403 -5 0 -8 -90 -8
-200z m382 -370 c123 -127 224 -234 226 -238 1 -4 -104 -113 -233 -242 l-235
-235 0 108 0 107 -125 0 -125 0 0 265 0 265 125 0 125 0 0 100 c0 55 4 100 9
100 5 0 110 -104 233 -230z"/>
<path d="M320 1055 l0 -405 205 0 205 0 0 405 0 405 -205 0 -205 0 0 -405z
m270 0 l0 -265 -65 0 -65 0 0 265 0 265 65 0 65 0 0 -265z"/>
</g>
</svg>
